<svg width="56" height="56" viewBox="0 0 56 56" fill="none" xmlns="http://www.w3.org/2000/svg">
<path fill-rule="evenodd" clip-rule="evenodd" d="M0.0181808 27.5408V33.9628C0.0181808 45.6164 9.46533 55.0635 21.119 55.0635H27.5409H33.9629C45.6165 55.0635 55.0636 45.6164 55.0636 33.9627V27.5408V21.1188C55.0636 9.46519 45.6165 0.0180664 33.9629 0.0180664H27.5409H21.1189C9.46531 0.0180664 0.0181808 9.46521 0.0181808 21.1188V27.5408Z" fill="#D6FFD0"/>
<path d="M39.2182 20.7181C39.2183 21.292 39.0774 21.8571 38.8077 22.3637C38.538 22.8703 38.1479 23.3028 37.6717 23.6231C37.1955 23.9434 36.6478 24.1417 36.077 24.2006C35.5061 24.2594 34.9295 24.1769 34.398 23.9605L32.6032 26.6527C32.9445 26.9975 33.2103 27.4094 33.3839 27.8624C33.5575 28.3155 33.635 28.7996 33.6116 29.2842C33.5881 29.7687 33.4641 30.2431 33.2476 30.6772C33.031 31.1114 32.7266 31.4957 32.3535 31.8059C31.9805 32.1161 31.5471 32.3454 31.0808 32.4791C30.6145 32.6129 30.1254 32.6483 29.6447 32.583C29.164 32.5177 28.7021 32.3532 28.2883 32.0999C27.8746 31.8466 27.518 31.5101 27.2412 31.1117L23.7468 32.6097C23.7935 32.8393 23.8173 33.0754 23.8182 33.3181C23.8178 34.1547 23.5176 34.9635 22.9722 35.598C22.4268 36.2324 21.6721 36.6505 20.845 36.7764C20.0178 36.9023 19.173 36.7278 18.4634 36.2844C17.7539 35.8411 17.2267 35.1582 16.9773 34.3596C16.7279 33.5609 16.7728 32.6994 17.104 31.931C17.4351 31.1627 18.0305 30.5384 18.7823 30.1713C19.5341 29.8041 20.3926 29.7184 21.2021 29.9297C22.0117 30.141 22.7187 30.6353 23.1952 31.3231L26.6896 29.8251C26.5609 29.2037 26.6035 28.5591 26.8129 27.9601C27.0223 27.3612 27.3906 26.8304 27.8784 26.4246C28.3662 26.0188 28.9551 25.7532 29.5821 25.6563C30.2092 25.5593 30.8508 25.6347 31.4384 25.8743L33.2332 23.1835C32.8283 22.7752 32.5302 22.2736 32.3653 21.7228C32.2004 21.172 32.1736 20.5891 32.2875 20.0256C32.4014 19.462 32.6523 18.9352 33.0182 18.4916C33.384 18.0481 33.8535 17.7015 34.3851 17.4826C34.9167 17.2636 35.4941 17.1789 36.0662 17.2361C36.6383 17.2933 37.1875 17.4905 37.6652 17.8103C38.143 18.1302 38.5346 18.5628 38.8055 19.0699C39.0763 19.5771 39.2181 20.1431 39.2182 20.7181Z" fill="#28B30E"/>
</svg>
