<svg width="56" height="56" viewBox="0 0 56 56" fill="none" xmlns="http://www.w3.org/2000/svg">
<path fill-rule="evenodd" clip-rule="evenodd" d="M0.470764 28.0408V34.4628C0.470764 46.1164 9.91791 55.5635 21.5715 55.5635H27.9935H34.4155C46.0691 55.5635 55.5162 46.1164 55.5162 34.4627V28.0408V21.6188C55.5162 9.96519 46.0691 0.518066 34.4154 0.518066H27.9935H21.5715C9.91789 0.518066 0.470764 9.96521 0.470764 21.6188V28.0408Z" fill="#D6FFD0"/>
<g clip-path="url(#clip0_12_969)">
<path fill-rule="evenodd" clip-rule="evenodd" d="M33.9488 15.2181C34.3148 13.5481 36.6968 13.5381 37.0768 15.2081L37.0968 15.2881L37.1308 15.4421C37.5708 17.3101 39.0808 18.7381 40.9748 19.0661C42.7188 19.3701 42.7188 21.8741 40.9748 22.1781C40.0448 22.341 39.1835 22.7746 38.4987 23.4245C37.8139 24.0744 37.336 24.9119 37.1248 25.8321L37.0768 26.0381C36.6968 27.7061 34.3168 27.6981 33.9488 26.0241L33.9088 25.8481C33.7066 24.9244 33.234 24.0819 32.5512 23.428C31.8684 22.774 31.0063 22.3382 30.0748 22.1761C28.3348 21.8721 28.3348 19.3721 30.0748 19.0701C31.0038 18.9088 31.864 18.4752 32.5462 17.8243C33.2284 17.1734 33.702 16.3345 33.9068 15.4141L33.9348 15.2861L33.9488 15.2181ZM31.7868 26.3141C31.679 25.8141 31.4251 25.3573 31.0573 25.0019C30.6894 24.6465 30.2242 24.4085 29.7208 24.3181V38.7481C30.3815 39.6029 31.261 40.2633 32.2662 40.6594C33.2714 41.0555 34.3649 41.1727 35.4312 40.9985C36.4975 40.8244 37.4969 40.3653 38.3238 39.67C39.1507 38.9746 39.7743 38.0687 40.1288 37.0481C39.5961 36.996 39.0728 36.8729 38.5728 36.6821C37.3828 36.2341 36.0888 35.3521 35.0268 33.8101C34.8387 33.5369 34.7669 33.2002 34.8271 32.8741C34.8873 32.548 35.0746 32.2591 35.3478 32.0711C35.6209 31.883 35.9576 31.8112 36.2837 31.8714C36.6099 31.9316 36.8987 32.1189 37.0868 32.3921C37.8508 33.5021 38.7268 34.0701 39.4528 34.3421C39.8208 34.4821 40.1488 34.5421 40.4048 34.5621L40.4508 34.5661C41.6908 33.2181 42.4708 30.6101 42.4708 28.4321C42.4708 26.9641 42.1168 25.5161 41.5048 24.2881L41.3468 24.3181C40.3068 24.4981 39.4788 25.2861 39.2448 26.3141L39.1968 26.5181C38.3008 30.4521 32.6868 30.4281 31.8248 26.4861L31.7868 26.3141ZM27.2208 22.7481C26.8113 22.1142 26.5935 21.3757 26.5935 20.6211C26.5935 19.8665 26.8113 19.1279 27.2208 18.4941V17.4541C26.5263 16.6378 25.598 16.0543 24.5613 15.7823C23.5247 15.5104 22.4295 15.5631 21.4237 15.9334C20.418 16.3037 19.5501 16.9737 18.9372 17.8529C18.3244 18.7322 17.9961 19.7783 17.9968 20.8501V20.8541C18.0748 21.6341 18.3928 22.2141 18.7608 22.6341C19.2188 23.1561 19.7008 23.3701 19.8148 23.3941C19.975 23.4305 20.1265 23.498 20.2606 23.593C20.3946 23.6879 20.5087 23.8083 20.5963 23.9473C20.6839 24.0863 20.7432 24.2412 20.7709 24.4031C20.7986 24.5651 20.7941 24.7309 20.7578 24.8911C20.7214 25.0513 20.6538 25.2028 20.5589 25.3369C20.464 25.471 20.3436 25.5851 20.2046 25.6726C20.0656 25.7602 19.9107 25.8195 19.7487 25.8472C19.5868 25.8749 19.421 25.8705 19.2608 25.8341C18.5408 25.6681 17.6208 25.1241 16.8808 24.2841C16.5807 23.9419 16.3235 23.5645 16.1148 23.1601C15.0948 24.5701 14.4708 26.4841 14.4708 28.4321C14.4708 29.9021 14.8268 31.5681 15.4368 32.9081C15.5968 32.7267 15.7701 32.5641 15.9568 32.4201C16.0845 32.3097 16.2332 32.2264 16.394 32.1751C16.5548 32.1238 16.7244 32.1056 16.8924 32.1216C17.0604 32.1376 17.2234 32.1875 17.3717 32.2682C17.5199 32.3489 17.6503 32.4588 17.7549 32.5912C17.8595 32.7237 17.9362 32.876 17.9804 33.0389C18.0245 33.2018 18.0352 33.3719 18.0119 33.5391C17.9885 33.7062 17.9315 33.8669 17.8444 34.0115C17.7572 34.156 17.6417 34.2814 17.5048 34.3801C17.1488 34.6621 16.7768 35.2681 16.5488 35.9701C16.7224 37.1322 17.2338 38.2176 18.0193 39.0914C18.8049 39.9652 19.8299 40.5889 20.967 40.8849C22.1041 41.1809 23.3031 41.1361 24.415 40.7562C25.5268 40.3763 26.5025 39.678 27.2208 38.7481V31.4081C26.4157 32.0595 25.4402 32.4656 24.4108 32.5781C24.2475 32.5963 24.0823 32.5823 23.9245 32.5367C23.7667 32.4911 23.6194 32.4148 23.4911 32.3123C23.3628 32.2098 23.2559 32.083 23.1766 31.9392C23.0972 31.7954 23.047 31.6373 23.0288 31.4741C23.0105 31.3108 23.0246 31.1456 23.0702 30.9878C23.1158 30.83 23.192 30.6828 23.2945 30.5544C23.3971 30.4261 23.5238 30.3192 23.6677 30.2399C23.8115 30.1606 23.9695 30.1103 24.1328 30.0921C25.1508 29.9801 25.8908 29.3941 26.4188 28.6241C26.9548 27.8441 27.1868 26.9881 27.2208 26.5781V22.7481Z" fill="#28B30E"/>
</g>
<defs>
<clipPath id="clip0_12_969">
<rect width="28" height="28" fill="white" transform="translate(14.4708 13.5181)"/>
</clipPath>
</defs>
</svg>
