<svg width="56" height="56" viewBox="0 0 56 56" fill="none" xmlns="http://www.w3.org/2000/svg">
<path fill-rule="evenodd" clip-rule="evenodd" d="M0.244507 28.0408V34.4628C0.244507 46.1164 9.69165 55.5635 21.3453 55.5635H27.7672H34.1892C45.8428 55.5635 55.29 46.1164 55.29 34.4627V28.0408V21.6188C55.29 9.96519 45.8428 0.518066 34.1892 0.518066H27.7672H21.3453C9.69164 0.518066 0.244507 9.96521 0.244507 21.6188V28.0408Z" fill="#D6FFD0"/>
<g clip-path="url(#clip0_12_959)">
<path fill-rule="evenodd" clip-rule="evenodd" d="M33.7225 15.2181C34.0885 13.5481 36.4705 13.5381 36.8505 15.2081L36.8705 15.2881L36.9045 15.4421C37.3445 17.3101 38.8545 18.7381 40.7485 19.0661C42.4925 19.3701 42.4925 21.8741 40.7485 22.1781C39.8185 22.341 38.9573 22.7746 38.2725 23.4245C37.5877 24.0744 37.1098 24.9119 36.8985 25.8321L36.8505 26.0381C36.4705 27.7061 34.0905 27.6981 33.7225 26.0241L33.6825 25.8481C33.4804 24.9244 33.0078 24.0819 32.325 23.428C31.6421 22.774 30.78 22.3382 29.8485 22.1761C28.1085 21.8721 28.1085 19.3721 29.8485 19.0701C30.7775 18.9088 31.6377 18.4752 32.3199 17.8243C33.0022 17.1734 33.4757 16.3345 33.6805 15.4141L33.7085 15.2861L33.7225 15.2181ZM31.5605 26.3141C31.4528 25.8141 31.1989 25.3573 30.831 25.0019C30.4631 24.6465 29.9979 24.4085 29.4945 24.3181V38.7481C30.1553 39.6029 31.0347 40.2633 32.0399 40.6594C33.0451 41.0555 34.1386 41.1727 35.2049 40.9985C36.2712 40.8244 37.2706 40.3653 38.0975 39.67C38.9244 38.9746 39.5481 38.0687 39.9025 37.0481C39.3698 36.996 38.8465 36.8729 38.3465 36.6821C37.1565 36.2341 35.8625 35.3521 34.8005 33.8101C34.6125 33.5369 34.5406 33.2002 34.6008 32.8741C34.661 32.548 34.8483 32.2591 35.1215 32.0711C35.3947 31.883 35.7314 31.8112 36.0575 31.8714C36.3836 31.9316 36.6725 32.1189 36.8605 32.3921C37.6245 33.5021 38.5005 34.0701 39.2265 34.3421C39.5945 34.4821 39.9225 34.5421 40.1785 34.5621L40.2245 34.5661C41.4645 33.2181 42.2445 30.6101 42.2445 28.4321C42.2445 26.9641 41.8905 25.5161 41.2785 24.2881L41.1205 24.3181C40.0805 24.4981 39.2525 25.2861 39.0185 26.3141L38.9705 26.5181C38.0745 30.4521 32.4605 30.4281 31.5985 26.4861L31.5605 26.3141ZM26.9945 22.7481C26.5851 22.1142 26.3673 21.3757 26.3673 20.6211C26.3673 19.8665 26.5851 19.1279 26.9945 18.4941V17.4541C26.3 16.6378 25.3718 16.0543 24.3351 15.7823C23.2984 15.5104 22.2032 15.5631 21.1975 15.9334C20.1917 16.3037 19.3238 16.9737 18.711 17.8529C18.0981 18.7322 17.7699 19.7783 17.7705 20.8501V20.8541C17.8485 21.6341 18.1665 22.2141 18.5345 22.6341C18.9925 23.1561 19.4745 23.3701 19.5885 23.3941C19.7487 23.4305 19.9002 23.498 20.0343 23.593C20.1684 23.6879 20.2825 23.8083 20.37 23.9473C20.4576 24.0863 20.5169 24.2412 20.5446 24.4031C20.5723 24.5651 20.5679 24.7309 20.5315 24.8911C20.4951 25.0513 20.4276 25.2028 20.3326 25.3369C20.2377 25.471 20.1173 25.5851 19.9783 25.6726C19.8393 25.7602 19.6844 25.8195 19.5225 25.8472C19.3605 25.8749 19.1947 25.8705 19.0345 25.8341C18.3145 25.6681 17.3945 25.1241 16.6545 24.2841C16.3545 23.9419 16.0972 23.5645 15.8885 23.1601C14.8685 24.5701 14.2445 26.4841 14.2445 28.4321C14.2445 29.9021 14.6005 31.5681 15.2105 32.9081C15.3705 32.7267 15.5438 32.5641 15.7305 32.4201C15.8582 32.3097 16.007 32.2264 16.1678 32.1751C16.3286 32.1238 16.4981 32.1056 16.6661 32.1216C16.8341 32.1376 16.9972 32.1875 17.1454 32.2682C17.2936 32.3489 17.424 32.4588 17.5286 32.5912C17.6332 32.7237 17.7099 32.876 17.7541 33.0389C17.7983 33.2018 17.809 33.3719 17.7856 33.5391C17.7622 33.7062 17.7053 33.8669 17.6181 34.0115C17.531 34.156 17.4154 34.2814 17.2785 34.3801C16.9225 34.6621 16.5505 35.2681 16.3225 35.9701C16.4962 37.1322 17.0075 38.2176 17.7931 39.0914C18.5786 39.9652 19.6036 40.5889 20.7407 40.8849C21.8778 41.1809 23.0768 41.1361 24.1887 40.7562C25.3006 40.3763 26.2763 39.678 26.9945 38.7481V31.4081C26.1894 32.0595 25.214 32.4656 24.1845 32.5781C24.0213 32.5963 23.856 32.5823 23.6983 32.5367C23.5405 32.4911 23.3932 32.4148 23.2649 32.3123C23.1365 32.2098 23.0296 32.083 22.9503 31.9392C22.871 31.7954 22.8208 31.6373 22.8025 31.4741C22.7843 31.3108 22.7983 31.1456 22.8439 30.9878C22.8895 30.83 22.9658 30.6828 23.0683 30.5544C23.1708 30.4261 23.2976 30.3192 23.4414 30.2399C23.5852 30.1606 23.7433 30.1103 23.9065 30.0921C24.9245 29.9801 25.6645 29.3941 26.1925 28.6241C26.7285 27.8441 26.9605 26.9881 26.9945 26.5781V22.7481Z" fill="#28B30E"/>
</g>
<defs>
<clipPath id="clip0_12_959">
<rect width="28" height="28" fill="white" transform="translate(14.2445 13.5181)"/>
</clipPath>
</defs>
</svg>
