<svg width="56" height="56" viewBox="0 0 56 56" fill="none" xmlns="http://www.w3.org/2000/svg">
<path fill-rule="evenodd" clip-rule="evenodd" d="M0.470764 27.5408V33.9628C0.470764 45.6164 9.91791 55.0635 21.5715 55.0635H27.9935H34.4155C46.0691 55.0635 55.5162 45.6164 55.5162 33.9627V27.5408V21.1188C55.5162 9.46519 46.0691 0.0180664 34.4154 0.0180664H27.9935H21.5715C9.91789 0.0180664 0.470764 9.46521 0.470764 21.1188V27.5408Z" fill="#D6FFD0"/>
<path fill-rule="evenodd" clip-rule="evenodd" d="M20.7553 17.5479C21.4061 16.8876 22.2753 16.5181 23.4395 16.5181C24.4477 16.5181 25.2953 16.9139 25.8792 17.5903C26.4504 18.252 26.7208 19.1233 26.7208 20.0181V21.9217C27.1829 21.8351 27.7679 21.7681 28.4708 21.7681C29.1737 21.7681 29.7587 21.8351 30.2208 21.9217V20.0181C30.2208 19.1233 30.4911 18.252 31.0624 17.5903C31.6462 16.9139 32.4938 16.5181 33.502 16.5181C34.6663 16.5181 35.5355 16.8876 36.1862 17.5479C36.7917 18.1622 37.1458 18.9717 37.4327 19.6957L37.4675 19.7872L41.1975 29.7357C41.1975 29.7357 41.3392 30.1353 41.3569 30.1946C41.5158 30.7254 41.5963 31.2765 41.5958 31.8306C41.5958 34.9717 39.0494 37.5181 35.9083 37.5181C32.7671 37.5181 30.2208 34.9717 30.2208 31.8306V28.5241L30.2186 28.5236C29.8428 28.4304 29.2573 28.3306 28.4708 28.3306C27.6842 28.3306 27.0987 28.4304 26.723 28.5236L26.7208 28.5241V31.8306C26.7208 34.9717 24.1744 37.5181 21.0333 37.5181C17.8921 37.5181 15.3458 34.9717 15.3458 31.8306C15.3458 31.2619 15.4292 30.7127 15.5846 30.1945C15.5929 30.1566 15.6038 30.1189 15.6175 30.0814C15.6572 29.9653 15.6994 29.8499 15.7441 29.7356L19.5089 19.6957C19.7957 18.9717 20.1498 18.1622 20.7553 17.5479ZM31.9708 31.8254C31.9736 29.6531 33.7354 27.8931 35.9083 27.8931C37.5692 27.8931 38.99 28.9215 39.5685 30.3763L39.6428 30.5792C39.7777 30.9826 39.8462 31.4052 39.8458 31.8306C39.8458 34.0052 38.0829 35.7681 35.9083 35.7681C33.7344 35.7681 31.972 34.0064 31.9708 31.8328V31.8306M21.0333 27.8931C19.3724 27.8931 17.9516 28.9215 17.373 30.3762L17.2988 30.5793C17.1639 30.9827 17.0953 31.4052 17.0958 31.8306C17.0958 34.0052 18.8587 35.7681 21.0333 35.7681C23.2079 35.7681 24.9708 34.0052 24.9708 31.8306C24.9708 29.656 23.2079 27.8931 21.0333 27.8931Z" fill="#28B30E"/>
</svg>
