<svg width="56" height="56" viewBox="0 0 56 56" fill="none" xmlns="http://www.w3.org/2000/svg">
<path fill-rule="evenodd" clip-rule="evenodd" d="M0.0181808 28.0408V34.4628C0.0181808 46.1164 9.46533 55.5635 21.119 55.5635H27.5409H33.9629C45.6165 55.5635 55.0636 46.1164 55.0636 34.4627V28.0408V21.6188C55.0636 9.96519 45.6165 0.518066 33.9629 0.518066H27.5409H21.1189C9.46531 0.518066 0.0181808 9.96521 0.0181808 21.6188V28.0408Z" fill="#D6FFD0"/>
<path d="M24.0807 23.4348H18.8307C18.5213 23.4348 18.2245 23.3119 18.0057 23.0931C17.7869 22.8743 17.664 22.5775 17.664 22.2681V17.0181C17.664 16.7087 17.7869 16.4119 18.0057 16.1931C18.2245 15.9744 18.5213 15.8514 18.8307 15.8514C19.1401 15.8514 19.4368 15.9744 19.6556 16.1931C19.8744 16.4119 19.9973 16.7087 19.9973 17.0181V21.1014H24.0807C24.3901 21.1014 24.6868 21.2244 24.9056 21.4431C25.1244 21.6619 25.2473 21.9587 25.2473 22.2681C25.2473 22.5775 25.1244 22.8743 24.9056 23.0931C24.6868 23.3119 24.3901 23.4348 24.0807 23.4348Z" fill="#28B30E"/>
<path d="M38.5182 28.6848C38.2088 28.6848 37.912 28.5619 37.6932 28.3431C37.4744 28.1243 37.3515 27.8275 37.3515 27.5181C37.3524 25.4642 36.6754 23.4675 35.4255 21.8377C34.1755 20.208 32.4227 19.0363 30.4388 18.5046C28.455 17.9729 26.3511 18.1108 24.4536 18.897C22.5562 19.6831 20.9713 21.0736 19.9448 22.8526C19.7898 23.1204 19.5348 23.3157 19.2358 23.3954C18.9368 23.4752 18.6184 23.4329 18.3506 23.2779C18.0828 23.1228 17.8875 22.8678 17.8078 22.5688C17.728 22.2698 17.7703 21.9514 17.9253 21.6836C19.209 19.4602 21.1905 17.7226 23.5625 16.7403C25.9344 15.758 28.5643 15.586 31.044 16.2509C33.5237 16.9158 35.7147 18.3805 37.2771 20.4177C38.8394 22.4549 39.6858 24.9508 39.6848 27.5181C39.6848 27.8275 39.5619 28.1243 39.3431 28.3431C39.1243 28.5619 38.8276 28.6848 38.5182 28.6848ZM37.2057 39.1848C36.8963 39.1848 36.5995 39.0619 36.3807 38.8431C36.1619 38.6243 36.039 38.3275 36.039 38.0181V33.9348H31.9557C31.6463 33.9348 31.3495 33.8119 31.1307 33.5931C30.9119 33.3743 30.789 33.0775 30.789 32.7681C30.789 32.4587 30.9119 32.1619 31.1307 31.9431C31.3495 31.7244 31.6463 31.6014 31.9557 31.6014H37.2057C37.5151 31.6014 37.8118 31.7244 38.0306 31.9431C38.2494 32.1619 38.3723 32.4587 38.3723 32.7681V38.0181C38.3723 38.3275 38.2494 38.6243 38.0306 38.8431C37.8118 39.0619 37.5151 39.1848 37.2057 39.1848Z" fill="#28B30E"/>
<path d="M28.0182 39.1848C24.9249 39.1817 21.9593 37.9515 19.772 35.7643C17.5848 33.577 16.3546 30.6114 16.3515 27.5181C16.3515 27.2087 16.4744 26.9119 16.6932 26.6931C16.912 26.4744 17.2088 26.3514 17.5182 26.3514C17.8276 26.3514 18.1243 26.4744 18.3431 26.6931C18.5619 26.9119 18.6848 27.2087 18.6848 27.5181C18.684 29.572 19.361 31.5687 20.6109 33.1985C21.8608 34.8282 23.6137 35.9999 25.5975 36.5316C27.5814 37.0634 29.6853 36.9254 31.5827 36.1393C33.4802 35.3531 35.0651 33.9626 36.0915 32.1836C36.1683 32.051 36.2704 31.9348 36.3921 31.8417C36.5137 31.7486 36.6525 31.6803 36.8006 31.6408C36.9486 31.6013 37.103 31.5914 37.2549 31.6115C37.4067 31.6317 37.5532 31.6816 37.6858 31.7584C37.8184 31.8351 37.9346 31.9372 38.0277 32.0589C38.1208 32.1806 38.1891 32.3194 38.2286 32.4674C38.2681 32.6154 38.278 32.7698 38.2578 32.9217C38.2377 33.0736 38.1878 33.22 38.111 33.3526C37.0851 35.122 35.6134 36.5916 33.8425 37.6149C32.0716 38.6382 30.0635 39.1795 28.0182 39.1848Z" fill="#28B30E"/>
</svg>
