<svg width="56" height="56" viewBox="0 0 56 56" fill="none" xmlns="http://www.w3.org/2000/svg">
<path fill-rule="evenodd" clip-rule="evenodd" d="M0.244507 27.5408V33.9628C0.244507 45.6164 9.69165 55.0635 21.3453 55.0635H27.7672H34.1892C45.8428 55.0635 55.29 45.6164 55.29 33.9627V27.5408V21.1188C55.29 9.46519 45.8428 0.0180664 34.1892 0.0180664H27.7672H21.3453C9.69164 0.0180664 0.244507 9.46521 0.244507 21.1188V27.5408Z" fill="#D6FFD0"/>
<path fill-rule="evenodd" clip-rule="evenodd" d="M20.529 17.5479C21.1798 16.8876 22.049 16.5181 23.2133 16.5181C24.2215 16.5181 25.069 16.9139 25.6529 17.5903C26.2242 18.252 26.4945 19.1233 26.4945 20.0181V21.9217C26.9566 21.8351 27.5416 21.7681 28.2445 21.7681C28.9474 21.7681 29.5324 21.8351 29.9945 21.9217V20.0181C29.9945 19.1233 30.2648 18.252 30.8361 17.5903C31.42 16.9139 32.2675 16.5181 33.2758 16.5181C34.44 16.5181 35.3092 16.8876 35.96 17.5479C36.5655 18.1622 36.9195 18.9717 37.2064 19.6957L37.2412 19.7872L40.9713 29.7357C40.9713 29.7357 41.1129 30.1353 41.1307 30.1946C41.2896 30.7254 41.37 31.2765 41.3695 31.8306C41.3695 34.9717 38.8231 37.5181 35.682 37.5181C32.5409 37.5181 29.9945 34.9717 29.9945 31.8306V28.5241L29.9923 28.5236C29.6166 28.4304 29.031 28.3306 28.2445 28.3306C27.458 28.3306 26.8725 28.4304 26.4967 28.5236L26.4945 28.5241V31.8306C26.4945 34.9717 23.9481 37.5181 20.807 37.5181C17.6659 37.5181 15.1195 34.9717 15.1195 31.8306C15.1195 31.2619 15.203 30.7127 15.3583 30.1945C15.3666 30.1566 15.3776 30.1189 15.3912 30.0814C15.4309 29.9653 15.4731 29.8499 15.5178 29.7356L19.2826 19.6957C19.5695 18.9717 19.9236 18.1622 20.529 17.5479ZM31.7445 31.8254C31.7473 29.6531 33.5091 27.8931 35.682 27.8931C37.343 27.8931 38.7638 28.9215 39.3422 30.3763L39.4165 30.5792C39.5514 30.9826 39.62 31.4052 39.6195 31.8306C39.6195 34.0052 37.8566 35.7681 35.682 35.7681C33.5081 35.7681 31.7457 34.0064 31.7445 31.8328V31.8306M20.807 27.8931C19.1461 27.8931 17.7254 28.9215 17.1468 30.3762L17.0725 30.5793C16.9376 30.9827 16.8691 31.4052 16.8695 31.8306C16.8695 34.0052 18.6324 35.7681 20.807 35.7681C22.9816 35.7681 24.7445 34.0052 24.7445 31.8306C24.7445 29.656 22.9816 27.8931 20.807 27.8931Z" fill="#28B30E"/>
</svg>
